<?xml version="1.0" encoding="UTF-8" standalone="no"?>
<svg
   height="48"
   width="48"
   version="1.1"
   id="svg20"
   sodipodi:docname="ico.svg"
   inkscape:version="1.2 (56b05e47e7, 2022-06-09, custom)"
   xmlns:inkscape="http://www.inkscape.org/namespaces/inkscape"
   xmlns:sodipodi="http://sodipodi.sourceforge.net/DTD/sodipodi-0.dtd"
   xmlns="http://www.w3.org/2000/svg"
   xmlns:svg="http://www.w3.org/2000/svg">
  <defs
     id="defs24" />
  <sodipodi:namedview
     id="namedview22"
     pagecolor="#505050"
     bordercolor="#eeeeee"
     borderopacity="1"
     inkscape:showpageshadow="0"
     inkscape:pageopacity="0"
     inkscape:pagecheckerboard="0"
     inkscape:deskcolor="#505050"
     showgrid="false"
     inkscape:zoom="17.708333"
     inkscape:cx="12.734118"
     inkscape:cy="19.510588"
     inkscape:window-width="1854"
     inkscape:window-height="1016"
     inkscape:window-x="66"
     inkscape:window-y="316"
     inkscape:window-maximized="1"
     inkscape:current-layer="svg20" />
  <path
     d="M4 19.5V11q0-1.2.9-2.1Q5.8 8 7 8h34q1.2 0 2.1.9.9.9.9 2.1v8.5h-3V11H7v8.5ZM7 40q-1.2 0-2.1-.9Q4 38.2 4 37v-8.5h3V37h34v-8.5h3V37q0 1.2-.9 2.1-.9.9-2.1.9Zm13-6.5q.4 0 .775-.2t.575-.6L28 19.4l2.65 5.3q.2.4.575.6.375.2.775.2h12v-3H32.95l-3.6-7.15q-.4-.75-1.35-.75-.95 0-1.35.75L20 28.6l-2.65-5.3q-.2-.4-.575-.6-.375-.2-.775-.2H4v3h11.05l3.6 7.2q.2.4.575.6.375.2.775.2Zm4-9.5Z"
     id="path18"
     style="fill:#d4ff2a;fill-opacity:1" />
</svg>
